<svg width="256" height="256" viewBox="0 0 256 256" fill="none" xmlns="http://www.w3.org/2000/svg">
<rect x="12.5714" y="14.2857" width="228" height="228" fill="black"/>
<path d="M21 0C9.40202 0 0 9.40202 0 21V235C0 246.598 9.40202 256 21 256H235C246.598 256 256 246.598 256 235V21C256 9.40202 246.598 0 235 0H21ZM137.143 198.857C137.143 223.777 122.423 235.926 101.114 235.926C81.8686 235.926 70.6972 225.96 65.0286 213.931L84.6171 202.074C88.3943 208.777 91.2629 214.446 99.5086 214.446C106.366 214.446 112 211.354 112 199.326V118.857H137.143V198.857ZM193.914 235.354C171.577 235.354 157.143 225.274 150.097 211.354L169.714 200C174.857 208.423 181.571 214.034 193.429 214.034C203.394 214.034 209.183 209.623 209.183 202.749C209.183 194.503 203.223 191.583 192.223 186.749L186.211 184.166C168.851 176.783 157.343 167.503 157.343 147.909C157.343 129.869 171.086 116.691 192.566 116.691C207.863 116.691 218.851 121.446 226.766 135.366L208 147.429C203.874 140.04 199.429 137.143 192.537 137.143C185.491 137.143 181.023 141.611 181.023 147.429C181.023 154.646 185.491 157.566 195.8 162.034L201.811 164.611C222.263 173.377 233.777 182.326 233.777 202.417C233.783 224.074 216.771 235.354 193.914 235.354Z" fill="#F4D21B"/>
</svg>
