<svg width="256" height="256" viewBox="0 0 256 256" fill="none" xmlns="http://www.w3.org/2000/svg">
<path d="M128.433 256C125.029 256 121.575 255.086 118.578 253.359L87.2352 234.818C82.562 232.176 84.8477 231.262 86.372 230.753C92.6195 228.569 93.8895 228.113 100.544 224.302C101.256 223.896 102.17 224.048 102.881 224.506L126.959 238.779C127.823 239.287 129.041 239.287 129.854 238.779L223.68 184.627C224.544 184.119 225.102 183.104 225.102 182.088V73.7851C225.102 72.7182 224.544 71.7532 223.63 71.195L129.855 17.0936C128.992 16.5855 127.824 16.5855 126.96 17.0936L33.2362 71.2451C32.3213 71.7532 31.7631 72.7689 31.7631 73.8357V182.088C31.7631 183.104 32.3213 184.119 33.2362 184.577L58.9409 199.41C72.9108 206.369 81.4445 198.191 81.4445 189.912V83.0301C81.4445 81.5063 82.6633 80.3382 84.1882 80.3382H96.075C97.5481 80.3382 98.8175 81.5063 98.8175 83.0301V189.962C98.8175 208.554 88.6576 219.222 71.0314 219.222C65.5953 219.222 61.3284 219.222 49.4416 213.33L24.8549 199.157C18.7588 195.651 15 189.098 15 182.038V73.7851C15 66.7751 18.7588 60.1714 24.8549 56.6664L118.578 2.51438C124.521 -0.838125 132.395 -0.838125 138.288 2.51438L232.115 56.7165C238.21 60.2215 241.969 66.7746 241.969 73.8357V182.088C241.969 189.098 238.21 195.651 232.115 199.207L138.288 253.359C135.29 255.086 131.886 256 128.433 256ZM204.175 149.273C204.175 129.003 190.459 123.619 161.656 119.81C132.497 115.948 129.551 113.967 129.551 107.16C129.551 101.522 132.04 94.0036 153.63 94.0036C172.883 94.0036 179.995 98.1692 182.941 111.174C183.195 112.393 184.314 113.307 185.582 113.307H197.775C198.536 113.307 199.247 113.003 199.756 112.443C200.265 111.885 200.518 111.123 200.466 110.36C198.587 87.9592 183.703 77.545 153.63 77.545C126.859 77.545 110.909 88.8224 110.909 107.77C110.909 128.293 126.808 133.983 152.461 136.522C183.195 139.52 185.582 144.041 185.582 150.086C185.582 160.551 177.151 165.02 157.389 165.02C132.549 165.02 127.113 158.772 125.284 146.429C125.081 145.108 123.963 144.143 122.592 144.143H110.451C108.927 144.143 107.759 145.362 107.759 146.834C107.759 162.634 116.344 181.48 157.441 181.48C187.106 181.429 204.175 169.693 204.175 149.273Z" fill="#539E43"/>
</svg>
