<svg width="257" height="256" viewBox="0 0 257 256" fill="none" xmlns="http://www.w3.org/2000/svg">
<circle cx="128.951" cy="128" r="128" fill="#764ABC"/>
<path d="M175.484 138.707L175.484 138.707C175.155 132.27 169.796 127.101 163.263 127.101L162.829 127.101L162.826 127.101C156.079 127.32 150.819 132.904 151.034 139.56L151.034 139.562C151.247 142.912 152.632 145.644 154.531 147.64C147.086 161.863 135.918 172.324 119.001 181.12C107.613 186.979 95.5888 189.187 83.8852 187.615C74.1019 186.259 66.4567 181.957 61.7773 175.063C54.7665 164.594 54.1281 153.306 59.9684 142.006C64.2359 133.837 70.613 127.869 74.8717 124.935L74.9207 124.902L74.899 124.846C73.8343 122.129 72.5553 117.521 71.916 114.068L71.8947 113.952L71.7991 114.02C40.2156 136.281 43.4194 166.731 53.0264 181.131L53.0268 181.131C60.1844 191.641 74.8113 198.353 90.8091 198.353C95.0717 198.353 99.5579 198.045 103.932 196.994C131.661 191.747 152.666 175.376 164.717 151.237L164.718 151.235L164.799 151.058C170.998 150.508 175.798 145.129 175.484 138.707ZM202.814 124.526L202.764 124.633C186.243 105.583 161.953 95.123 134.268 95.123H130.689C128.865 91.2408 124.696 88.831 119.995 88.831H119.675C112.925 88.831 107.666 94.537 107.887 101.178L107.887 101.178C108.102 107.504 113.569 112.784 120.109 112.784L120.635 112.784L120.639 112.784C125.45 112.574 129.616 109.638 131.339 105.442H135.236C151.641 105.442 167.173 110.155 181.335 119.372L181.335 119.372C192.183 126.392 199.959 135.604 204.32 146.605L204.32 146.607C208.139 155.603 207.931 164.391 204.003 171.717L204.003 171.717C197.943 183.219 187.736 189.294 174.236 189.294C165.722 189.294 157.426 186.673 153.166 184.793L153.124 184.774L153.088 184.803C150.534 186.89 146.27 190.352 143.18 192.449L143.068 192.525L143.191 192.58C152.572 196.768 162.069 199.186 171.242 199.186C192.049 199.186 207.515 187.644 213.395 176.498L213.396 176.497C219.797 163.883 219.264 142.671 202.938 124.508L202.862 124.425L202.814 124.526ZM130.115 39.7474C110.578 39.7474 92.5538 53.7211 85.2909 74.1968C75.3816 101.473 81.8737 127.69 94.0117 148.671C92.9569 150.06 92.3285 152.462 92.5405 154.757C92.7493 161.089 98.2163 166.361 104.762 166.361L105.189 166.361L105.191 166.361C112.051 166.15 117.305 160.567 116.984 153.91C116.983 147.574 111.406 142.31 104.869 142.31H104.435H104.43C104.021 142.31 103.407 142.31 102.867 142.496C94.0584 127.841 90.3392 112.14 91.7301 95.2042L91.7302 95.203C92.5755 82.4234 96.8372 71.3174 104.493 62.106L104.493 62.1053C107.68 58.1845 112.276 55.2531 117.104 53.2764C121.931 51.2998 126.983 50.2801 131.077 50.1788C142.547 49.9661 150.678 56.891 156.038 65.2829C161.398 73.6759 163.978 83.5234 164.347 89.1209L164.35 89.1731L164.401 89.1879L175.054 92.3304L175.158 92.361L175.15 92.2531C172.694 57.83 150.943 39.7474 130.115 39.7474Z" fill="white" stroke="white" stroke-width="0.15"/>
</svg>
