<svg width="76" height="76" viewBox="0 0 76 76" fill="none" xmlns="http://www.w3.org/2000/svg">
<g clip-path="url(#clip0_229_43)">
<rect width="76" height="76" rx="19" fill="#FF9A00"/>
<path d="M14 0C6.26801 0 0 6.26801 0 14V62C0 69.732 6.26801 76 14 76H62C69.732 76 76 69.732 76 62V14C76 6.26801 69.732 0 62 0H14ZM45.5288 54.1797H40.0174C39.7719 54.1797 39.6735 54.0014 39.5754 53.7727L36.426 43.6406H25.1593L22.1577 53.6578C22.1084 54.0013 21.9606 54.1797 21.6656 54.1797H16.6465C16.3023 54.1797 16.2043 54.0017 16.3023 53.6018C18.9596 44.8489 23.4366 30.2609 26.5855 20.3641C26.7333 19.7924 26.8811 19.2437 26.979 17.2415C26.979 17.0129 27.1268 16.9219 27.2746 16.9219H34.0649C34.3106 16.9219 34.3599 16.9508 34.4583 17.1794C38.0984 28.9066 42.0843 41.8306 45.8235 53.672C45.9221 54.0149 45.8237 54.1797 45.5288 54.1797ZM57 53.6993C57 53.9861 56.9022 54.1797 56.6123 54.1797H51.5849C51.2947 54.1797 51.2109 54.0428 51.2109 53.6425V26.8129C51.2109 26.4695 51.246 26.2734 51.4882 26.2734H56.6123C56.9022 26.2734 57 26.4127 57 26.8129V53.6993ZM54.0505 22.5797C52.1164 22.5797 50.8116 21.2068 50.8116 19.0328C50.8116 16.9164 52.2136 15.4863 54.0986 15.4863C56.0807 15.4863 57.2897 16.9164 57.2897 19.0328C57.2896 21.2068 55.9841 22.5797 54.0505 22.5797Z" fill="#330000"/>
<path d="M30.6696 22.5625C29.9311 26.2734 27.9144 32.8047 26.4382 38.1484H35.0975C34.1133 34.2891 31.7023 26.5703 30.7189 22.5625H30.6696Z" fill="#330000"/>
</g>
<defs>
<clipPath id="clip0_229_43">
<rect width="76" height="76" fill="white"/>
</clipPath>
</defs>
</svg>
