<svg width="256" height="256" viewBox="0 0 256 256" fill="none" xmlns="http://www.w3.org/2000/svg">
<path d="M72.1636 106.631C71.8756 115.681 76.4035 119.689 76.5155 122.234C76.4622 122.752 76.2855 123.25 76.0002 123.686C75.7149 124.121 75.3293 124.483 74.8756 124.739L69.7556 128.319C69.0931 128.783 68.312 129.049 67.5037 129.086C67.3317 129.078 64.2277 129.818 59.3118 118.854C56.3126 122.593 52.4965 125.598 48.1557 127.638C43.815 129.677 39.0646 130.698 34.2682 130.621C27.7563 130.976 10.1086 126.929 11.0166 108.161C10.3806 92.8659 24.6403 83.3643 39.3881 84.1674C42.2281 84.1754 48.028 84.3153 58.1838 86.6727V80.4315C59.2598 69.859 52.3039 61.656 40.2601 62.8866C39.3001 62.8906 32.5002 62.6869 21.9244 66.9262C18.9804 68.2768 18.6044 68.053 17.6245 68.053C14.6605 68.053 15.8805 59.4704 16.4485 58.3835C18.5324 55.8263 30.7922 51.0515 42.8241 51.1195C50.8689 50.4088 58.8707 52.8889 65.0997 58.0239C67.6318 60.8532 69.5636 64.1657 70.7783 67.7615C71.9931 71.3573 72.4657 75.1618 72.1676 78.9451L72.1636 106.631ZM37.5961 119.573C50.5679 119.385 56.0599 111.593 57.3118 107.398C58.2958 103.382 58.1318 100.841 58.1318 96.45C54.2639 95.523 48.696 94.5121 42.3081 94.5041C36.2482 94.0486 25.1803 96.7537 25.6123 107.394C25.1163 114.103 30.0603 119.94 37.5961 119.573ZM105.963 128.783C102.819 129.07 101.355 126.841 100.891 124.639L80.9715 58.851C80.5835 57.7403 80.3275 56.5935 80.2035 55.4228C80.13 54.9401 80.2513 54.4481 80.5408 54.0547C80.8304 53.6614 81.2643 53.3989 81.7474 53.3251C81.8434 53.3091 80.8955 53.3251 90.6473 53.3251C94.1593 52.9735 95.3032 55.7344 95.6672 57.4685L109.955 113.739L123.219 57.4685C123.431 56.182 124.395 53.0454 128.339 53.377H135.203C136.071 53.3051 139.647 53.1772 140.275 57.5205L153.642 114.51L168.39 57.5205C168.582 56.6494 169.478 52.9774 173.462 53.377H181.35C181.69 53.3251 183.81 53.0534 183.45 56.8053C183.278 57.5445 184.814 52.5459 162.35 124.691C161.89 126.893 160.422 129.122 157.278 128.835H149.802C145.426 129.294 144.798 124.975 144.73 124.539L131.467 69.7471L118.355 124.483C118.291 124.919 117.663 129.238 113.283 128.779L105.963 128.783ZM215.353 131.032C213.001 131.036 201.786 130.912 192.41 126.122C191.476 125.727 190.68 125.063 190.124 124.216C189.568 123.369 189.276 122.376 189.286 121.363V117.068C189.286 113.691 191.766 114.311 192.818 114.714C196.834 116.336 199.41 117.567 204.341 118.55C219.001 121.559 225.449 117.631 227.029 116.76C232.289 113.639 232.705 106.499 229.129 102.795C224.937 99.2829 222.937 99.1511 207.877 94.4042C206.021 93.8888 190.398 88.9662 190.362 73.4831C190.118 62.1994 200.382 51.0356 218.169 51.1275C223.237 51.1235 236.741 52.7777 240.397 57.3687C240.937 58.2037 241.205 59.1867 241.165 60.1816V64.2212C241.165 65.9952 240.517 66.8823 239.217 66.8823C236.133 66.5387 230.661 62.4191 219.553 62.587C216.797 62.4431 203.598 62.9506 204.19 72.5641C204.018 80.1398 214.833 82.9807 216.069 83.3084C230.653 87.6916 235.529 88.4188 241.317 95.1275C248.173 104.018 244.477 114.426 243.057 117.279C235.425 132.259 215.689 131.04 215.353 131.032Z" fill="#232F3E"/>
<path d="M128.039 204.596C162.758 204.596 203.422 193.596 231.433 172.93C236.093 169.502 232.097 164.388 227.385 166.385C196.793 179.278 163.953 186.006 130.751 186.184C86.2896 186.212 42.5939 174.625 4.00075 152.573C0.824796 150.778 -1.47917 154.003 1.13279 156.356C35.9235 187.697 81.1917 204.904 128.039 204.596Z" fill="#FF9900"/>
<path d="M210.663 158.521C219.804 157.43 239.561 155.073 243.109 159.629C246.645 164.175 239.312 182.613 235.874 191.259L235.737 191.602C234.713 194.159 236.917 195.186 239.221 193.24C254.225 180.654 258.065 154.307 255.045 150.523C252.021 146.739 225.697 143.514 209.669 154.77C207.21 156.508 207.67 158.862 210.385 158.554L210.663 158.521Z" fill="#FF9900"/>
</svg>
