<svg width="258" height="258" viewBox="0 0 258 258" fill="none" xmlns="http://www.w3.org/2000/svg">
<circle cx="129" cy="129" r="128" fill="white" stroke="black" stroke-width="2"/>
<path fill-rule="evenodd" clip-rule="evenodd" d="M84.5273 76.6523C86.9882 76.6172 89.2382 76.8633 92.0858 77.4609C94.3007 77.918 97.4648 78.7969 99.1171 79.3945C100.769 79.9922 103.371 81.1875 104.918 82.0664C106.465 82.9453 108.891 84.5976 110.332 85.6875C111.773 86.7773 114.023 88.8867 115.394 90.3281C116.73 91.7695 118.734 94.3008 119.824 95.9531C120.879 97.6055 122.355 100.277 123.059 101.93C123.762 103.582 124.746 106.43 125.273 108.258C125.766 110.086 126.398 113.109 126.715 114.937C126.996 116.766 127.383 121.02 127.769 130.406H47.4374V134.379C47.4374 136.523 47.6835 139.758 47.9648 141.48C48.246 143.203 48.8788 146.086 49.371 147.809C49.8983 149.531 50.8827 152.238 51.621 153.785C52.3241 155.332 53.7655 157.828 54.7499 159.34C55.7694 160.816 57.6327 163.102 58.9687 164.437C60.2694 165.738 62.4491 167.531 63.7851 168.445C65.1562 169.359 67.371 170.59 68.7069 171.223C70.0429 171.82 72.5741 172.699 74.3319 173.121C76.0898 173.578 79.078 174.07 81.0116 174.176C83.1562 174.352 85.8983 174.281 88.0429 174C89.9765 173.789 93.0351 173.191 94.828 172.734C96.5858 172.277 99.0468 171.469 100.242 170.977C101.473 170.449 103.582 169.324 104.918 168.445C106.254 167.602 108.328 165.914 109.488 164.719C110.648 163.559 112.441 161.238 113.461 159.586C114.48 157.934 115.746 155.402 116.309 153.961C116.836 152.52 117.574 150.551 117.926 149.566C118.312 148.617 119.086 147.246 119.719 146.578C120.809 145.383 120.949 145.348 123.34 145.348C124.676 145.348 125.976 145.488 126.152 145.699C126.398 145.945 126.187 147.281 125.519 149.918C124.957 152.062 124.008 154.98 123.41 156.422C122.812 157.863 121.617 160.324 120.703 161.871C119.824 163.418 118.277 165.703 117.258 166.969C116.203 168.234 114.516 169.992 113.496 170.871C112.441 171.75 110.648 173.121 109.488 173.93C108.328 174.703 105.797 176.109 103.863 177.023C101.684 178.043 98.8007 179.062 96.3046 179.625C94.0898 180.152 91.1015 180.785 89.6952 180.996C88.3241 181.207 85.9335 181.383 84.4569 181.383C82.9452 181.383 80.8358 181.242 79.7812 181.066C78.7265 180.855 76.828 180.539 75.5624 180.328C74.2968 180.117 71.6952 179.449 69.7616 178.887C67.828 178.289 64.5937 176.953 62.5546 175.898C60.5155 174.844 57.5273 172.945 55.9101 171.645C54.2577 170.309 51.9726 168.094 50.8124 166.723C49.6171 165.316 47.8241 162.785 46.8046 161.098C45.7851 159.375 44.4491 156.738 43.8866 155.191C43.289 153.645 42.4101 151.043 41.953 149.391C41.496 147.738 40.6874 144.047 40.1601 141.129C39.5273 137.578 39.1757 134.238 39.1054 130.934C38.9648 126.152 38.9999 125.766 40.6874 117.574C41.8124 112.195 42.9023 107.941 43.7108 105.797C44.414 103.969 45.7148 101.191 46.6288 99.6445C47.5077 98.0976 48.9843 95.8125 49.8983 94.5469C50.8124 93.2812 53.0624 90.8203 54.8905 89.0976C56.7187 87.375 59.2851 85.1953 60.621 84.3164C61.9921 83.4023 64.2069 82.1367 65.5429 81.4336C66.8788 80.7656 69.1991 79.7812 70.6405 79.2539C72.0819 78.7265 75.0351 77.918 77.1444 77.4961C79.5702 76.9687 82.3476 76.6523 84.5273 76.6523ZM74.9296 85.4062C73.5585 85.793 71.414 86.4961 70.2187 86.9883C68.9882 87.4805 66.8085 88.6406 65.3671 89.5547C63.9257 90.4336 61.3241 92.543 59.6366 94.1953C57.914 95.8476 55.8398 98.2031 54.996 99.4687C54.1874 100.734 52.8515 103.02 52.078 104.566C51.3046 106.113 50.2851 108.645 49.7929 110.191C49.3007 111.738 48.6679 114.34 48.3515 115.992C48.0702 117.645 47.7187 120.035 47.6132 121.371L47.4374 123.727H120.035C119.613 118.945 119.156 116.062 118.805 114.234C118.453 112.406 117.715 109.699 117.187 108.258C116.695 106.816 115.711 104.496 115.008 103.16C114.34 101.824 113.144 99.75 112.371 98.5898C111.598 97.4297 109.91 95.3906 108.644 94.0547C107.379 92.7539 105.375 90.9609 104.215 90.1523C103.055 89.3086 100.769 87.9726 99.1171 87.1992C97.4648 86.4258 94.8632 85.4414 93.3163 85.0547C91.5585 84.5976 88.9218 84.2812 86.2851 84.1758C83.9648 84.1055 81.0468 84.1758 79.7812 84.3515C78.5155 84.5625 76.3358 85.0195 74.9296 85.4062ZM138.316 79.4648C140.144 79.4297 141.726 79.6406 142.887 80.0273C143.871 80.3789 145.312 81.2578 146.121 82.0664C146.93 82.8398 153.715 91.8047 161.238 101.965C168.726 112.125 174.984 120.527 175.125 120.598C175.23 120.668 181.84 112.125 189.75 101.578C198.398 90.0469 204.656 81.9961 205.5 81.3984C206.238 80.8008 207.433 80.1328 208.101 79.8515C208.945 79.5 210.246 79.3945 212.215 79.4648C213.762 79.5351 215.168 79.7109 215.273 79.8867C215.379 80.0273 211.863 84.914 207.469 90.7851C203.039 96.6211 195.656 106.289 191.051 112.301C186.445 118.312 182.402 123.656 182.016 124.254C181.664 124.852 181.383 125.906 181.383 126.609C181.383 127.348 181.594 128.367 181.875 128.895C182.156 129.457 190.629 140.812 200.683 154.137C215.414 173.684 218.824 178.43 218.367 178.641C218.051 178.781 216.433 178.887 214.781 178.887C212.285 178.922 211.512 178.781 210.035 178.078C209.051 177.586 207.715 176.602 207.047 175.863C206.379 175.125 199.277 165.527 191.297 154.488C183.351 143.449 176.461 133.992 175.23 132.41L159.762 153.293C151.254 164.789 143.66 174.879 142.851 175.758C142.008 176.672 140.601 177.691 139.512 178.184C138.105 178.781 137.016 178.992 135.328 178.992C134.062 178.957 132.726 178.852 132.305 178.676C131.672 178.43 133.394 176.004 149.812 153.961C159.832 140.531 168.48 128.859 170.133 126.539L152.203 103.23C137.754 84.4219 134.414 79.9219 134.906 79.7109C135.223 79.5703 136.769 79.4648 138.316 79.4648Z" fill="black"/>
</svg>
