<svg width="256" height="256" viewBox="0 0 256 256" fill="none" xmlns="http://www.w3.org/2000/svg">
<path d="M85.6667 256C109.219 256 128.333 236.885 128.333 213.333V170.667H85.6667C62.1147 170.667 43 189.781 43 213.333C43 236.885 62.1147 256 85.6667 256Z" fill="#0ACF83"/>
<path d="M43 128C43 104.448 62.1147 85.3333 85.6667 85.3333H128.333V170.667H85.6667C62.1147 170.667 43 151.552 43 128Z" fill="#A259FF"/>
<path d="M43 42.6666C43 19.1147 62.1147 0 85.6667 0H128.333V85.3333H85.6667C62.1147 85.3333 43 66.2186 43 42.6666Z" fill="#F24E1E"/>
<path d="M128.333 0H171C194.552 0 213.667 19.1147 213.667 42.6666C213.667 66.2186 194.552 85.3333 171 85.3333H128.333V0Z" fill="#FF7262"/>
<path d="M213.667 128C213.667 151.552 194.552 170.667 171 170.667C147.448 170.667 128.333 151.552 128.333 128C128.333 104.448 147.448 85.3333 171 85.3333C194.552 85.3333 213.667 104.448 213.667 128Z" fill="#1ABCFE"/>
</svg>
