<svg width="256" height="256" viewBox="0 0 256 256" fill="none" xmlns="http://www.w3.org/2000/svg">
<g clip-path="url(#clip0_44_117)">
<path d="M251.323 116.608L251.313 116.603L139.323 4.54069C133.281 -1.5153 122.708 -1.51009 116.688 4.53548L4.67708 116.608C1.66667 119.636 0 123.655 0 127.923C0 132.196 1.66667 136.219 4.6875 139.242L116.677 251.304C119.698 254.332 123.719 256 128 256C132.281 256 136.302 254.332 139.313 251.31L251.313 139.242C254.333 136.219 256 132.196 256 127.923C256 123.655 254.333 119.636 251.323 116.608Z" fill="#EF473B"/>
<path opacity="0.1" d="M252.597 135.359L139.43 248.594C136.389 251.648 132.326 253.333 128 253.333C123.674 253.333 119.611 251.648 116.559 248.589L3.403 135.359C2.08073 134.035 1.07031 132.496 0.287109 130.855C0.86914 134.012 2.37044 136.923 4.6875 139.242L116.677 251.304C119.698 254.332 123.719 256 128 256C132.281 256 136.302 254.332 139.313 251.309L251.313 139.242C253.63 136.923 255.132 134.012 255.714 130.855C254.93 132.496 253.919 134.035 252.597 135.359Z" fill="#010101"/>
<path d="M181.333 106.667C177.335 106.667 173.632 107.841 170.43 109.763L146.237 85.5704C148.159 82.3686 149.333 78.6661 149.333 74.6668C149.333 62.9012 139.76 53.3335 128 53.3335C124.055 53.3335 120.402 54.4832 117.229 56.3582L91.0553 30.1818L83.5156 37.7254L109.688 63.9012C107.816 67.073 106.667 70.7234 106.667 74.6668C106.667 84.5796 113.493 92.8575 122.667 95.2423V160.758C113.493 163.143 106.667 171.421 106.667 181.333C106.667 193.099 116.24 202.667 128 202.667C139.76 202.667 149.333 193.099 149.333 181.333C149.333 171.421 142.507 163.143 133.333 160.758V95.2423C135.219 94.7521 136.987 94.0066 138.633 93.0503L162.95 117.367C161.124 120.51 160 124.11 160 128C160 139.766 169.573 149.333 181.333 149.333C193.094 149.333 202.667 139.766 202.667 128C202.667 116.234 193.094 106.667 181.333 106.667Z" fill="white"/>
<path opacity="0.2" d="M4.67708 119.275L116.688 7.20215C122.708 1.15658 133.281 1.15137 139.323 7.20736L251.313 119.27L251.323 119.275C254.014 121.982 255.557 125.496 255.87 129.257C255.907 128.81 256 128.376 256 127.923C256 123.655 254.333 119.636 251.323 116.608L251.313 116.603L139.323 4.54069C133.281 -1.5153 122.708 -1.51009 116.688 4.53548L4.67708 116.608C1.66667 119.636 0 123.655 0 127.923C0 128.375 0.0930987 128.81 0.130208 129.256C0.443359 125.495 1.98633 121.981 4.67708 119.275Z" fill="white"/>
<path d="M197.854 114.671C200.816 118.334 202.667 122.932 202.667 128C202.667 139.766 193.094 149.333 181.333 149.333C169.573 149.333 160 139.766 160 128C160 124.11 161.124 120.51 162.95 117.367L138.633 93.0503C136.987 94.0067 135.219 94.7521 133.333 95.2423V160.758C142.507 163.143 149.333 171.421 149.333 181.333C149.333 193.099 139.76 202.667 128 202.667C122.544 202.667 117.613 200.548 113.836 197.166L153.642 236.972L236.873 153.69L197.854 114.671ZM146.237 85.5705L170.43 109.763C173.632 107.841 177.335 106.667 181.333 106.667C186.401 106.667 191 108.518 194.665 111.481L144.77 61.5854L144.743 61.6069C147.575 65.2274 149.333 69.7241 149.333 74.6668C149.333 78.6662 148.159 82.3687 146.237 85.5705Z" fill="url(#paint0_linear_44_117)"/>
<path d="M251.323 116.608L251.313 116.603L139.323 4.54069C133.281 -1.5153 122.708 -1.51009 116.688 4.53548L4.67708 116.608C1.66667 119.636 0 123.655 0 127.923C0 132.196 1.66667 136.219 4.6875 139.242L116.677 251.304C119.698 254.332 123.719 256 128 256C132.281 256 136.302 254.332 139.313 251.31L251.313 139.242C254.333 136.219 256 132.196 256 127.923C256 123.655 254.333 119.636 251.323 116.608Z" fill="url(#paint1_linear_44_117)"/>
</g>
<defs>
<linearGradient id="paint0_linear_44_117" x1="103.139" y1="103.212" x2="195.27" y2="195.343" gradientUnits="userSpaceOnUse">
<stop stop-color="#010101" stop-opacity="0.1"/>
<stop offset="1" stop-color="#010101" stop-opacity="0"/>
</linearGradient>
<linearGradient id="paint1_linear_44_117" x1="21.4807" y1="78.2927" x2="234.489" y2="177.62" gradientUnits="userSpaceOnUse">
<stop stop-color="white" stop-opacity="0.2"/>
<stop offset="1" stop-color="white" stop-opacity="0"/>
</linearGradient>
<clipPath id="clip0_44_117">
<rect width="256" height="256" fill="white"/>
</clipPath>
</defs>
</svg>
