<svg width="256" height="256" viewBox="0 0 256 256" fill="none" xmlns="http://www.w3.org/2000/svg">
<g clip-path="url(#clip0_44_140)">
<path fill-rule="evenodd" clip-rule="evenodd" d="M127.992 2.66602C57.312 2.66602 0 60.198 0 131.182C0 187.95 36.672 236.116 87.544 253.112C93.944 254.292 96.28 250.324 96.28 246.92C96.28 243.868 96.168 235.788 96.104 225.066C60.496 232.832 52.984 207.838 52.984 207.838C47.168 192.996 38.776 189.044 38.776 189.044C27.152 181.068 39.656 181.23 39.656 181.23C52.496 182.138 59.256 194.474 59.256 194.474C70.68 214.112 89.216 208.442 96.512 205.148C97.672 196.844 100.984 191.18 104.64 187.968C76.216 184.724 46.336 173.704 46.336 124.462C46.336 110.43 51.32 98.962 59.512 89.974C58.192 86.722 53.8 73.662 60.76 55.968C60.76 55.968 71.512 52.514 95.96 69.14C106.176 66.288 117.12 64.868 128.008 64.81C138.88 64.866 149.832 66.288 160.056 69.14C184.488 52.514 195.216 55.968 195.216 55.968C202.2 73.662 197.808 86.722 196.488 89.974C204.696 98.962 209.648 110.43 209.648 124.462C209.648 173.824 179.72 184.692 151.208 187.872C155.8 191.84 159.896 199.678 159.896 211.67C159.896 228.85 159.736 242.704 159.736 246.922C159.736 250.36 162.04 254.36 168.536 253.098C219.36 236.068 256 187.934 256 131.182C256 60.198 198.688 2.66602 127.992 2.66602Z" fill="#3E75C3"/>
</g>
<defs>
<clipPath id="clip0_44_140">
<rect width="256" height="256" fill="white"/>
</clipPath>
</defs>
</svg>
