<svg width="256" height="256" viewBox="0 0 256 256" fill="none" xmlns="http://www.w3.org/2000/svg">
<circle cx="128" cy="128" r="128" fill="#001E2B"/>
<path d="M144.451 62.0567C136.502 53.0472 129.657 43.8969 128.259 41.9964C128.111 41.8557 127.89 41.8557 127.743 41.9964C126.345 43.8969 119.5 53.0472 111.551 62.0567C43.3207 145.183 122.297 201.282 122.297 201.282L122.959 201.704C123.548 210.362 125.02 222.821 125.02 222.821H127.964H130.908C130.908 222.821 132.38 210.432 132.969 201.704L133.632 201.212C133.705 201.212 212.681 145.183 144.451 62.0567ZM127.964 200.015C127.964 200.015 124.431 197.129 123.474 195.651V195.51L127.743 104.993C127.743 104.711 128.185 104.711 128.185 104.993L132.454 195.51V195.651C131.497 197.129 127.964 200.015 127.964 200.015Z" fill="#00ED64"/>
</svg>
