<svg width="256" height="256" viewBox="0 0 256 256" fill="none" xmlns="http://www.w3.org/2000/svg">
<circle cx="128" cy="128" r="124" fill="white"/>
<path fill-rule="evenodd" clip-rule="evenodd" d="M0 128C0 57.3075 57.3075 0 128 0C198.692 0 256 57.3075 256 128C256 172.151 233.646 211.082 199.637 234.092L83.7439 71.8408C81.5877 68.8222 77.7284 67.5424 74.1958 68.6744C70.6632 69.8064 68.2667 73.0911 68.2667 76.8007V204.8H85.3333V103.429L184.83 242.724C167.707 251.223 148.412 256 128 256C57.3075 256 0 198.692 0 128ZM170.667 170.667V68.2667H187.733V170.667H170.667Z" fill="black"/>
</svg>
