<svg width="256" height="256" viewBox="0 0 256 256" fill="none" xmlns="http://www.w3.org/2000/svg">
<g clip-path="url(#clip0_229_50)">
<rect x="30" y="30" width="200" height="194" fill="#31A8FF"/>
<path d="M0 225C0 242.121 13.8792 256 31 256H225C242.121 256 256 242.121 256 225V31C256 13.8792 242.121 0 225 0H31C13.8792 0 0 13.8792 0 31V225ZM171.959 149.804C152.158 143.133 144.029 132.296 144.029 120.207C144.029 102.28 158.828 88.5243 182.381 88.5243C193.636 88.5243 203.433 91.2337 209.478 94.5685L204.266 112.494C200.097 109.993 191.76 106.658 182.798 106.658C173.626 106.658 168.624 111.244 168.624 117.497C168.624 123.958 173.418 126.876 186.341 131.671C204.891 138.132 213.229 147.512 213.437 162.519C213.437 181.07 199.055 193.365 172.167 193.365C159.869 193.365 148.822 190.447 141.319 186.278L146.529 167.52C152.157 171.062 163.205 175.023 172.376 175.023C183.631 175.023 188.633 171.273 188.633 164.604C188.634 157.725 184.465 154.39 171.959 149.804ZM39.0891 55.2829C48.4686 53.6153 61.1835 52.3645 78.2749 52.3645C97.0339 52.3645 110.583 56.3252 119.545 63.8286C127.882 70.7077 133.302 81.7544 133.302 94.8856C133.302 108.226 129.134 119.064 121.422 126.568C111 136.781 95.1589 141.784 77.0247 141.784C72.2307 141.784 68.0621 141.575 64.5183 140.742V193.37H39.0891V55.2829Z" fill="#001E36"/>
<path d="M107.873 95.9273C107.873 80.2951 97.0345 72.1658 79.3177 72.1658C72.2307 72.1658 67.2283 72.7911 64.5183 73.4165V120.523C67.8536 121.565 71.8138 121.774 77.0247 121.774C96.2001 121.774 107.873 112.185 107.873 95.9273Z" fill="#001E36"/>
</g>
<defs>
<clipPath id="clip0_229_50">
<rect width="256" height="256" fill="white"/>
</clipPath>
</defs>
</svg>
