<svg width="257" height="256" viewBox="0 0 257 256" fill="none" xmlns="http://www.w3.org/2000/svg">
<circle cx="128.157" cy="128" r="128" fill="#292929"/>
<path d="M130.853 146.504C139.434 146.504 146.39 139.548 146.39 130.967C146.39 122.385 139.434 115.429 130.853 115.429C122.271 115.429 115.315 122.385 115.315 130.967C115.315 139.548 122.271 146.504 130.853 146.504Z" fill="#61DAFB"/>
<path d="M131.001 190.687C144.055 203.129 156.931 210.489 167.303 210.489C170.701 210.489 173.919 209.788 176.602 208.211C185.901 202.954 189.298 189.811 186.08 171.061C185.543 167.731 184.828 164.402 183.934 160.897C187.51 159.846 190.729 158.794 193.948 157.743C212.009 150.909 222.023 141.446 222.023 131.107C222.023 120.593 212.009 111.13 193.948 104.471C190.729 103.245 187.51 102.193 183.934 101.317C184.828 97.8125 185.543 94.4831 186.08 91.1536C189.12 72.053 185.722 58.7351 176.423 53.478C173.741 51.9009 170.522 51.2 167.124 51.2C156.931 51.2 143.877 58.5598 130.822 71.0015C117.947 58.5598 105.072 51.2 94.6996 51.2C91.3019 51.2 88.0831 51.9009 85.4007 53.478C76.1018 58.7351 72.7041 71.8777 75.9229 90.6279C76.4594 93.9574 77.1747 97.2868 78.0689 100.792C74.4923 101.843 71.2735 102.894 68.0546 103.946C49.9932 110.78 39.979 120.243 39.979 130.582C39.979 141.096 49.9932 150.558 68.0546 157.217C71.2735 158.444 74.4923 159.495 78.0689 160.372C77.1747 163.876 76.4594 167.206 75.9229 170.535C72.8829 189.285 76.2806 202.603 85.4007 207.685C88.0831 209.262 91.3019 209.963 94.6996 209.963C105.072 210.314 117.947 202.954 131.001 190.687ZM120.987 167.03C124.206 167.206 127.604 167.206 131.001 167.206C134.399 167.206 137.797 167.206 141.015 167.03C137.797 171.236 134.399 175.091 131.001 178.771C127.604 175.091 124.206 171.236 120.987 167.03ZM98.8126 148.981C100.601 151.96 102.21 154.764 104.177 157.568C98.6338 156.867 93.4479 155.991 88.4407 154.939C90.0502 150.208 91.8384 145.301 93.9843 140.395C95.4149 143.198 97.0244 146.177 98.8126 148.981ZM88.4407 106.75C93.4479 105.698 98.6338 104.822 104.177 104.121C102.389 106.925 100.601 109.729 98.8126 112.708C97.0244 115.687 95.4149 118.49 93.9843 121.469C91.6596 116.387 89.8713 111.481 88.4407 106.75ZM98.2761 130.757C100.601 126.025 103.104 121.294 105.966 116.563C108.648 112.007 111.688 107.45 114.728 102.894C120.093 102.544 125.458 102.369 131.001 102.369C136.724 102.369 142.088 102.544 147.274 102.894C150.493 107.45 153.354 112.007 156.037 116.563C158.898 121.294 161.402 126.025 163.726 130.757C161.402 135.488 158.898 140.219 156.037 144.951C153.354 149.507 150.314 154.063 147.274 158.619C141.91 158.97 136.545 159.145 131.001 159.145C125.279 159.145 119.914 158.97 114.728 158.619C111.509 154.063 108.648 149.507 105.966 144.951C103.104 140.219 100.601 135.488 98.2761 130.757ZM168.197 121.294L163.369 112.532C161.58 109.553 159.971 106.75 158.004 103.946C163.547 104.647 168.733 105.523 173.741 106.574C172.131 111.481 170.343 116.387 168.197 121.294ZM168.197 140.219C170.343 145.126 172.131 150.033 173.741 154.764C168.733 155.815 163.547 156.692 158.004 157.393C159.792 154.589 161.58 151.785 163.369 148.806C164.978 146.177 166.588 143.198 168.197 140.219ZM172.31 201.026C170.879 201.902 169.091 202.253 167.124 202.253C158.362 202.253 147.453 195.243 136.724 184.729C141.91 179.297 146.917 173.164 151.924 166.33C160.329 165.629 168.376 164.402 175.886 162.65C176.781 165.804 177.317 168.958 177.854 172.112C180.357 187.007 178.39 197.697 172.31 201.026ZM181.609 108.677C201.637 114.285 213.619 122.871 213.619 130.757C213.619 137.591 205.393 144.425 190.908 149.857C188.047 150.909 184.828 151.96 181.609 152.836C179.284 145.652 176.423 138.292 172.846 130.757C176.423 123.222 179.463 115.862 181.609 108.677ZM167.303 59.2608C169.27 59.2608 170.879 59.6112 172.489 60.4874C178.39 63.8169 180.536 74.331 178.032 89.4012C177.496 92.3802 176.781 95.5345 176.065 98.864C168.555 97.2868 160.507 96.0602 152.103 95.184C147.274 88.3498 142.088 82.2166 136.902 76.7843C147.632 66.4454 158.54 59.2608 167.303 59.2608ZM141.015 94.4831C137.797 94.3078 134.399 94.3078 131.001 94.3078C127.604 94.3078 124.206 94.3078 120.987 94.4831C124.206 90.2774 127.604 86.4222 131.001 82.7423C134.399 86.4222 137.797 90.4527 141.015 94.4831ZM89.6925 60.4874C91.1231 59.6112 92.9114 59.2608 94.8785 59.2608C103.641 59.2608 114.549 66.2702 125.279 76.7843C120.093 82.2166 115.086 88.3498 110.079 95.184C101.674 95.885 93.6267 97.1116 86.116 98.864C85.2219 95.7097 84.6854 92.5555 84.1489 89.4012C81.6454 74.5062 83.6124 63.9921 89.6925 60.4874ZM80.3936 152.836C60.3651 147.229 48.3838 138.642 48.3838 130.757C48.3838 123.923 56.6098 117.088 71.0947 111.656C73.9559 110.605 77.1747 109.553 80.3936 108.677C82.7183 115.862 85.5795 123.222 89.156 130.757C85.5795 138.292 82.5395 145.827 80.3936 152.836ZM84.1489 172.112C84.6854 169.133 85.4007 165.979 86.116 162.65C93.6267 164.227 101.674 165.453 110.079 166.33C114.907 173.164 120.093 179.297 125.279 184.729C114.549 195.068 103.641 202.253 94.8785 202.253C92.9114 202.253 91.3019 201.902 89.6925 201.026C83.6124 197.697 81.6454 187.007 84.1489 172.112Z" fill="#61DAFB"/>
</svg>
