<svg width="257" height="256" viewBox="0 0 257 256" fill="none" xmlns="http://www.w3.org/2000/svg">
<path d="M128.869 256C199.561 256 256.869 198.692 256.869 128C256.869 57.3076 199.561 0 128.869 0C58.1764 0 0.868896 57.3076 0.868896 128C0.868896 198.692 58.1764 256 128.869 256Z" fill="#CC6699"/>
<path d="M197.731 71.1682C196.195 65.0242 191.843 59.9042 185.187 56.3202C172.131 49.4082 151.139 49.1522 131.939 56.0642C120.419 60.1602 98.6593 69.3762 82.2753 84.4802C65.8913 99.8402 63.3313 113.408 64.6113 118.784C67.4273 133.632 83.0433 144.128 95.3313 152.832C98.6593 155.136 101.731 157.184 104.035 159.232C97.1233 162.816 78.4353 173.312 73.3153 184.32C69.4753 193.024 71.2673 199.424 72.8033 202.24C74.3393 205.568 76.8993 208.128 79.4593 208.896C82.0193 209.664 84.8353 209.92 87.6513 209.92C98.6593 209.92 109.411 204.032 116.067 194.048C122.723 184.064 123.235 170.752 120.163 162.56C124.515 161.536 129.123 161.536 134.243 162.048C144.227 163.328 149.091 167.168 151.395 170.24C153.955 173.568 154.467 176.896 154.211 178.944C153.699 182.784 150.627 185.088 149.091 186.112C147.811 186.88 146.787 187.648 147.043 189.184C147.555 191.232 149.603 190.976 150.371 190.976C152.675 190.464 160.867 186.368 161.379 177.152C161.635 171.52 159.331 165.888 154.979 161.28C149.347 155.392 140.899 152.32 131.171 152.576C124.003 152.576 119.139 153.344 115.299 154.624L115.043 154.368C111.459 150.528 106.595 146.944 102.243 143.36C92.0033 135.68 82.5313 128.256 83.0433 117.248C83.8113 103.424 97.3793 89.8562 123.747 76.8002C147.043 65.2802 165.987 64.7682 175.971 68.3522C180.067 69.8882 182.883 71.9362 183.907 74.2402C185.955 78.5922 185.187 84.2242 181.603 90.3682C175.715 100.608 160.867 113.408 138.083 115.968C124.259 117.504 118.371 111.36 118.115 111.104C116.579 109.312 115.555 108.288 113.763 109.312C111.715 110.336 112.739 113.152 113.251 114.176C114.275 116.992 118.627 121.856 126.051 124.416C131.939 126.464 147.043 127.744 165.731 120.576C187.235 111.872 202.083 88.8322 197.731 71.1682ZM109.411 180.224C109.155 180.736 109.155 181.248 108.899 181.76C108.643 182.272 108.387 182.784 108.387 183.296C107.363 185.6 105.827 187.904 103.779 189.952C97.8913 196.352 89.9553 198.144 87.3953 196.608C86.6273 196.096 86.3713 195.328 86.1153 194.304C85.6033 191.232 87.3953 185.088 92.7713 179.712C99.1713 173.056 108.131 168.192 110.179 167.168C110.947 171.776 110.691 176.128 109.411 180.224Z" fill="white"/>
</svg>
