<svg width="256" height="256" viewBox="0 0 256 256" fill="none" xmlns="http://www.w3.org/2000/svg">
<mask id="mask0_229_63" style="mask-type:luminance" maskUnits="userSpaceOnUse" x="0" y="51" width="256" height="154">
<path d="M0 51H256V204.6H0V51Z" fill="white"/>
</mask>
<g mask="url(#mask0_229_63)">
<path fill-rule="evenodd" clip-rule="evenodd" d="M128 51C93.8667 51 72.5333 68.0667 64 102.2C76.8 85.1333 91.7333 78.7333 108.8 83C118.537 85.432 125.497 92.5004 133.201 100.318C145.749 113.056 160.275 127.8 192 127.8C226.133 127.8 247.467 110.733 256 76.6C243.2 93.6667 228.267 100.067 211.2 95.8C201.463 93.368 194.503 86.2996 186.799 78.4821C174.251 65.7437 159.725 51 128 51ZM64 127.8C29.8667 127.8 8.53333 144.867 0 179C12.8 161.933 27.7333 155.533 44.8 159.8C54.5375 162.237 61.4969 169.3 69.2006 177.118C81.7493 189.856 96.275 204.6 128 204.6C162.133 204.6 183.467 187.533 192 153.4C179.2 170.467 164.267 176.867 147.2 172.6C137.463 170.168 130.503 163.1 122.799 155.282C110.251 142.544 95.725 127.8 64 127.8Z" fill="#38BDF8"/>
</g>
</svg>
